<svg width="50" height="56" viewBox="0 0 50 56" fill="none" xmlns="http://www.w3.org/2000/svg">
<path d="M0.5 4C0.5 2.067 2.067 0.5 4 0.5H46C47.933 0.5 49.5 2.067 49.5 4V52C49.5 53.933 47.933 55.5 46 55.5H4C2.067 55.5 0.5 53.933 0.5 52V4Z" stroke="#EEEEEE"/>
<path d="M29.1484 20.0977C27.6511 20.0977 26.3385 20.7653 25.3526 22.0285C25.2211 22.1969 25.1039 22.3655 25 22.5287C24.8961 22.3654 24.7789 22.1969 24.6474 22.0285C23.6615 20.7653 22.3489 20.0977 20.8516 20.0977C18.023 20.0977 16 22.466 16 25.308C16 28.5576 18.6633 31.6202 24.6357 35.2382C24.7476 35.306 24.8738 35.3399 25 35.3399C25.1262 35.3399 25.2524 35.306 25.3643 35.2382C31.3367 31.6202 34 28.5576 34 25.308C34 22.4675 31.9786 20.0977 29.1484 20.0977ZM30.736 29.3543C29.4926 30.7416 27.6137 32.2024 25 33.8129C22.3863 32.2024 20.5074 30.7416 19.264 29.3543C18.0139 27.9594 17.4062 26.6359 17.4062 25.308C17.4062 23.2618 18.7891 21.5039 20.8516 21.5039C21.9019 21.5039 22.7975 21.9606 23.5134 22.8613C24.0859 23.5816 24.3271 24.3254 24.3288 24.3307C24.4204 24.6244 24.6923 24.8245 25 24.8245C25.3077 24.8245 25.5797 24.6245 25.6713 24.3307C25.6735 24.3236 25.9075 23.603 26.4611 22.8937C27.181 21.9715 28.0851 21.5039 29.1484 21.5039C31.2131 21.5039 32.5938 23.2634 32.5938 25.308C32.5938 26.6358 31.9861 27.9594 30.736 29.3543Z" fill="#A5A5A5"/>
</svg>
