<svg width="16" height="16" viewBox="0 0 16 16" fill="none" xmlns="http://www.w3.org/2000/svg">
<path d="M12.9165 7.58317H8.4165V3.08317C8.4165 2.85305 8.22996 2.6665 7.99984 2.6665C7.76971 2.6665 7.58317 2.85305 7.58317 3.08317V7.58317H3.08317C2.85305 7.58317 2.6665 7.76971 2.6665 7.99984C2.6665 8.22996 2.85305 8.4165 3.08317 8.4165H7.58317V12.9165C7.58317 13.1466 7.76971 13.3332 7.99984 13.3332C8.22996 13.3332 8.4165 13.1466 8.4165 12.9165V8.4165H12.9165C13.1466 8.4165 13.3332 8.22996 13.3332 7.99984C13.3332 7.76971 13.1466 7.58317 12.9165 7.58317Z" fill="#333333"/>
</svg>
